<svg id="Layer_1" data-name="Layer 1" xmlns="http://www.w3.org/2000/svg" viewBox="0 0 254.3 220"><defs><style>.cls-1{fill:#a51e23;stroke:#5a67b0;stroke-width:16px;}.cls-1,.cls-2{stroke-miterlimit:10;}.cls-2{fill:#d89928;stroke:#fff;stroke-width:2px;}</style></defs><title>Artboard 1</title><circle class="cls-1" cx="127.9" cy="109.2" r="98"/><polygon class="cls-2" points="185.13 51.68 74.51 41.33 73.45 53.68 183.9 64.06 185.13 51.68"/><path class="cls-2" d="M62.37,187.08,156,194.5a15.61,15.61,0,0,0,17-14h0l10.24.89a24.81,24.81,0,0,0,26.89-22.25l4.45-48.23A24.63,24.63,0,0,0,192.46,84l-10.24-.89,1.4-15.54L73.17,57.21l-6.1,65.38Zm27.3-16.79a20.22,20.22,0,0,1-3.59-.63c-.92-.58-1.21-1.71-1.75-2.83v-5.56l7.3-77.93A6.2,6.2,0,0,1,104,84.4l-7.58,80.41A6.09,6.09,0,0,1,89.67,170.29ZM118,173a6.27,6.27,0,0,1-5.65-6.71l7.58-80.41A6.2,6.2,0,0,1,132.25,87l-7.58,80.41A6.27,6.27,0,0,1,118,173Zm35-3.07a6.2,6.2,0,1,1-12.35-1.06l7.58-80.42a6.2,6.2,0,0,1,12.35,1.06Zm43.75-60.73-4.45,48.23a6.52,6.52,0,0,1-7,5.87L175,162.44l5.76-61.15,10.24.89A6.56,6.56,0,0,1,196.68,109.23Z"/><path class="cls-2" d="M110.07,40.77l16.44,1.59,15.74,1.54,3.53.28,9.36.87,29.5,2.71A19.43,19.43,0,0,0,149,36.17a14.24,14.24,0,0,0-6.32-2.42,23.84,23.84,0,0,0-43.33-8.4A17.34,17.34,0,0,0,93.87,24,17.74,17.74,0,0,0,74.93,37.61L95.6,39.54Z"/></svg>