<svg id="Layer_1" data-name="Layer 1" xmlns="http://www.w3.org/2000/svg" viewBox="0 0 211.99 211.99"><defs><style>.cls-1{fill:#a51e23;stroke:#5a67b0;stroke-width:16px;}.cls-1,.cls-2{stroke-miterlimit:10;}.cls-2{fill:#d89928;stroke:#fff;stroke-width:2px;}</style></defs><title>icon</title><circle class="cls-1" cx="105.99" cy="105.99" r="97.99"/><polygon class="cls-2" points="180.54 75.25 117.99 58.66 116.15 65.61 178.7 82.2 180.54 75.25"/><path class="cls-2" d="M203.59,97.73l-5.83-1.54,2.33-8.79L137.54,70.81l-9.81,37-9.81-37L55.37,87.4l2.33,8.79-5.83,1.54a14.37,14.37,0,0,0-10.19,17.55l7.24,27.31a14.36,14.36,0,0,0,17.55,10.19l5.83-1.54v0a9.07,9.07,0,0,0,11.09,6.44l44.34-11.76,44.34,11.76a9.07,9.07,0,0,0,11.08-6.44v0l5.83,1.54a14.36,14.36,0,0,0,17.55-10.19l7.24-27.31A14.37,14.37,0,0,0,203.59,97.73ZM63.76,142.55a3.77,3.77,0,0,1-4.62-2.68l-7.24-27.31a3.78,3.78,0,0,1,2.69-4.62l5.83-1.54L69.59,141Zm23.5,3.34a3.6,3.6,0,0,1-4.4-2.56L70.78,97.81A3.59,3.59,0,1,1,77.73,96L89.8,141.49A3.6,3.6,0,0,1,87.25,145.89Zm16-4.24a3.6,3.6,0,0,1-4.4-2.55L86.77,93.58a3.59,3.59,0,1,1,6.95-1.84l12.07,45.52A3.6,3.6,0,0,1,103.23,141.65Zm11.58-6.79L102.76,89.34a3.59,3.59,0,1,1,6.94-1.84l11.71,44.15-.81,3a9.19,9.19,0,0,0-.27,2.21,3.51,3.51,0,0,1-1.11.53A3.61,3.61,0,0,1,114.82,134.86Zm21.43,2.56a3.51,3.51,0,0,1-1.11-.53,9.16,9.16,0,0,0-.27-2.21l-.81-3,11.71-44.15a3.59,3.59,0,1,1,6.95,1.84l-12.06,45.52A3.6,3.6,0,0,1,136.24,137.42Zm16,4.24a3.59,3.59,0,0,1-2.55-4.4l12.07-45.52a3.6,3.6,0,0,1,7,1.84L156.62,139.1A3.6,3.6,0,0,1,152.23,141.65Zm20.38,1.68a3.6,3.6,0,1,1-7-1.84L177.73,96a3.59,3.59,0,1,1,6.94,1.84Zm31-30.77-7.24,27.31a3.77,3.77,0,0,1-4.62,2.68L185.87,141,195,106.41l5.83,1.54A3.78,3.78,0,0,1,203.56,112.57Z" transform="translate(-21.92 -3.18)"/><path class="cls-2" d="M160.4,64.92l9.33,2.47,8.93,2.37,2,.54,5.26,1.39,16.65,4.42a11.33,11.33,0,0,0-19.39-10.16,8.82,8.82,0,0,0-3.43-2,13.84,13.84,0,0,0-24-9,10.2,10.2,0,0,0-3-1.33,10.38,10.38,0,0,0-12.24,6l11.69,3.1Z" transform="translate(-21.92 -3.18)"/><rect class="cls-2" x="52.84" y="70.02" width="64.71" height="7.19" transform="matrix(0.97, -0.26, 0.26, 0.97, -37.94, 21.11)"/><path class="cls-2" d="M69.51,71.69l5.26-1.39,2-.54,8.93-2.37,9.32-2.47,8.21-2.17L115,59.64a10.38,10.38,0,0,0-12.24-6,10.22,10.22,0,0,0-3,1.33,13.84,13.84,0,0,0-24,9,8.8,8.8,0,0,0-3.43,2A11.34,11.34,0,0,0,52.86,76.11Z" transform="translate(-21.92 -3.18)"/></svg>